<?xml version="1.0" standalone="no"?>
<!DOCTYPE svg PUBLIC "-//W3C//DTD SVG 20010904//EN"
 "http://www.w3.org/TR/2001/REC-SVG-20010904/DTD/svg10.dtd">
<svg version="1.0" xmlns="http://www.w3.org/2000/svg"
 width="512.000000pt" height="512.000000pt" viewBox="0 0 512.000000 512.000000"
 preserveAspectRatio="xMidYMid meet">
<metadata>
Created by potrace 1.14, written by Peter Selinger 2001-2017
</metadata>
<g transform="translate(0.000000,512.000000) scale(0.100000,-0.100000)"
fill="#000000" stroke="none">
<path d="M145 5105 c-51 -18 -120 -91 -134 -141 -25 -89 -6 -161 58 -225 51
-52 96 -69 179 -69 l52 0 0 -487 c0 -470 1 -490 21 -533 41 -90 107 -133 204
-133 91 -1 163 45 201 127 l24 51 0 615 c0 419 -4 628 -11 655 -15 53 -91 129
-144 144 -60 17 -400 14 -450 -4z m432 -158 c17 -17 18 -58 21 -621 2 -599 2
-603 -19 -629 -28 -37 -80 -37 -108 -1 -21 26 -21 36 -21 552 l0 526 -22 23
c-20 21 -30 23 -125 23 -97 0 -106 2 -128 25 -32 31 -32 69 0 101 l25 25 180
-3 c156 -3 182 -5 197 -21z"/>
<path d="M1391 5110 c-131 -28 -272 -113 -351 -213 -49 -61 -102 -170 -121
-247 -10 -40 -14 -133 -14 -340 0 -270 1 -289 23 -360 65 -208 237 -372 442
-421 30 -7 91 -13 135 -13 99 0 168 16 265 62 98 46 220 166 268 262 61 125
67 165 67 475 0 310 -4 341 -61 462 -68 144 -195 258 -347 310 -80 28 -229 39
-306 23z m201 -151 c116 -25 238 -110 295 -206 57 -98 63 -140 63 -438 0 -240
-2 -281 -19 -334 -112 -360 -597 -426 -801 -109 -66 101 -72 143 -68 474 l3
290 38 76 c92 187 293 288 489 247z"/>
<path d="M1407 4805 c-80 -30 -141 -88 -180 -172 -21 -46 -22 -60 -22 -318 0
-256 1 -272 22 -317 53 -115 155 -182 278 -182 119 -1 228 69 276 177 23 51
24 60 24 322 l0 270 -32 66 c-37 74 -89 122 -164 150 -58 22 -147 24 -202 4z
m163 -153 c19 -9 45 -32 57 -51 22 -33 23 -41 23 -285 0 -234 -1 -253 -20
-284 -21 -34 -87 -72 -125 -72 -38 0 -104 38 -125 72 -19 31 -20 50 -20 284 0
244 1 252 23 285 26 39 79 69 122 69 17 0 46 -8 65 -18z"/>
<path d="M2309 5092 c-34 -17 -65 -44 -84 -71 -28 -39 -30 -50 -30 -126 0 -76
2 -87 30 -126 42 -60 119 -99 196 -99 l58 0 3 -492 c3 -487 3 -494 25 -534 31
-59 95 -110 154 -124 97 -23 200 28 252 124 22 41 22 44 25 625 2 364 -1 609
-7 650 -14 86 -49 137 -120 174 -54 27 -56 27 -252 27 -196 0 -197 0 -250 -28z
m445 -143 l26 -20 0 -608 c0 -681 3 -651 -69 -651 -24 0 -44 6 -52 17 -11 13
-15 119 -19 555 l-5 540 -24 19 c-19 16 -40 19 -121 19 -83 0 -101 3 -124 21
-19 15 -26 30 -26 54 0 24 7 39 26 54 25 19 40 21 194 21 154 0 169 -2 194
-21z"/>
<path d="M3542 5100 c-109 -29 -187 -74 -272 -160 -87 -86 -131 -163 -160
-276 -18 -67 -20 -111 -20 -343 0 -304 8 -360 67 -480 69 -141 215 -259 378
-307 80 -23 230 -23 310 0 195 57 344 197 413 388 26 72 27 79 30 361 4 329
-3 384 -65 510 -46 91 -160 208 -250 255 -132 69 -291 88 -431 52z m229 -140
c172 -32 315 -170 353 -340 19 -83 22 -491 5 -586 -25 -139 -124 -264 -256
-327 -126 -59 -303 -48 -421 27 -96 61 -170 165 -197 277 -18 76 -21 503 -5
590 46 242 281 404 521 359z"/>
<path d="M3604 4810 c-86 -27 -180 -123 -204 -208 -5 -21 -10 -148 -10 -289 0
-291 8 -328 83 -406 64 -65 126 -91 217 -91 117 0 209 54 265 155 l30 54 3
277 3 278 -27 60 c-29 65 -79 117 -146 151 -48 25 -162 35 -214 19z m156 -160
c26 -13 47 -34 60 -61 20 -38 21 -54 18 -284 -3 -267 -3 -268 -71 -319 -37
-27 -117 -27 -154 0 -68 51 -68 52 -71 319 -3 230 -2 246 18 284 37 74 124
100 200 61z"/>
<path d="M4515 5105 c-51 -18 -120 -91 -134 -141 -25 -89 -6 -161 58 -225 51
-52 96 -69 179 -69 l52 0 0 -487 c0 -470 1 -490 21 -533 41 -90 107 -133 204
-133 91 -1 163 45 201 127 l24 51 0 615 c0 419 -4 628 -11 655 -15 53 -91 129
-144 144 -60 17 -400 14 -450 -4z m432 -158 c17 -17 18 -58 21 -621 2 -599 2
-603 -19 -629 -28 -37 -80 -37 -108 -1 -21 26 -21 36 -21 552 l0 526 -22 23
c-20 21 -30 23 -125 23 -97 0 -106 2 -128 25 -32 31 -32 69 0 101 l25 25 180
-3 c156 -3 182 -5 197 -21z"/>
<path d="M428 3337 c-191 -58 -335 -203 -404 -407 -17 -49 -19 -88 -19 -370 0
-282 2 -321 19 -370 34 -100 86 -188 151 -252 129 -129 272 -184 455 -175 71
3 125 12 167 27 138 48 268 162 333 292 65 131 72 184 68 515 -4 264 -6 293
-26 346 -70 190 -202 326 -375 387 -97 35 -267 38 -369 7z m287 -143 c162 -42
294 -185 325 -353 13 -70 13 -492 0 -562 -31 -168 -163 -311 -325 -353 -249
-65 -500 90 -554 342 -15 70 -15 514 0 584 54 252 305 407 554 342z"/>
<path d="M475 3036 c-63 -29 -138 -111 -159 -173 -23 -69 -23 -538 0 -607 22
-65 100 -148 166 -176 67 -29 190 -25 254 8 56 28 129 112 148 169 23 68 23
538 0 606 -21 62 -96 144 -159 173 -70 33 -180 33 -250 0z m206 -149 c65 -43
69 -64 69 -327 0 -263 -4 -284 -69 -327 -71 -48 -175 -20 -213 57 -16 30 -18
66 -18 270 0 204 2 240 18 270 25 50 75 80 132 80 32 0 58 -7 81 -23z"/>
<path d="M1405 3341 c-80 -37 -125 -111 -125 -206 0 -129 106 -225 249 -225
l40 0 3 -487 c3 -536 3 -529 66 -597 85 -91 246 -87 329 7 54 61 58 87 58 359
0 234 -1 248 -20 267 -11 10 -33 22 -48 25 -23 5 -34 1 -57 -23 l-30 -29 0
-241 c0 -228 -1 -242 -20 -261 -26 -26 -74 -26 -100 0 -19 19 -20 33 -20 549
l0 530 -22 26 c-22 24 -29 26 -129 28 -89 2 -110 5 -128 21 -27 25 -28 79 -1
106 19 19 33 20 200 20 167 0 181 -1 200 -20 19 -19 20 -33 20 -261 l0 -241
30 -29 c23 -24 34 -28 57 -23 15 3 37 15 48 25 19 19 20 33 20 267 0 272 -4
298 -58 359 -58 66 -86 73 -317 73 -178 0 -210 -3 -245 -19z"/>
<path d="M2608 3337 c-191 -58 -335 -203 -404 -407 -17 -49 -19 -88 -19 -370
0 -282 2 -321 19 -370 34 -100 86 -188 151 -252 129 -129 272 -184 455 -175
71 3 125 12 167 27 138 48 268 162 333 292 65 131 72 184 68 515 -4 264 -6
293 -26 346 -70 190 -202 326 -375 387 -97 35 -267 38 -369 7z m287 -143 c122
-31 225 -115 280 -228 49 -99 55 -146 55 -406 0 -260 -6 -307 -55 -406 -91
-187 -304 -282 -510 -229 -159 42 -288 178 -324 343 -6 31 -11 152 -11 292 0
140 5 261 11 292 54 252 305 407 554 342z"/>
<path d="M2655 3036 c-63 -29 -138 -111 -159 -173 -23 -69 -23 -538 0 -607 22
-65 100 -148 166 -176 67 -29 190 -25 254 8 56 28 129 112 148 169 23 68 23
538 0 606 -21 62 -96 144 -159 173 -70 33 -180 33 -250 0z m206 -149 c65 -43
69 -64 69 -327 0 -263 -4 -284 -69 -327 -71 -48 -175 -20 -213 57 -16 30 -18
66 -18 270 0 204 2 240 18 270 25 50 75 80 132 80 32 0 58 -7 81 -23z"/>
<path d="M3585 3341 c-80 -37 -125 -111 -125 -206 0 -129 106 -225 249 -225
l40 0 3 -487 c3 -536 3 -529 66 -597 85 -91 246 -87 329 7 59 67 58 55 58 727
0 672 1 660 -58 727 -58 66 -86 73 -317 73 -178 0 -210 -3 -245 -19z m445
-151 c20 -20 20 -33 20 -630 0 -597 0 -610 -20 -630 -26 -26 -74 -26 -100 0
-19 19 -20 33 -20 549 l0 530 -22 26 c-22 24 -29 26 -129 28 -89 2 -110 5
-128 21 -27 25 -28 79 -1 106 19 19 33 20 200 20 167 0 181 -1 200 -20z"/>
<path d="M4480 3328 c-98 -60 -136 -175 -89 -278 40 -88 100 -128 210 -137
l69 -6 0 -487 0 -488 28 -53 c79 -151 297 -159 387 -14 l30 48 0 646 0 646
-28 48 c-19 33 -44 56 -80 77 l-52 30 -210 0 -211 0 -54 -32z m465 -143 l25
-24 0 -601 0 -601 -25 -24 c-31 -32 -69 -32 -100 0 l-25 24 0 531 c0 631 14
574 -137 570 -85 -2 -137 14 -151 45 -17 36 -15 48 9 79 l20 26 180 0 c178 0
180 0 204 -25z"/>
<path d="M175 1601 c-201 -52 -237 -318 -56 -413 42 -22 67 -28 117 -28 l64 0
0 -482 c0 -322 4 -496 11 -523 16 -56 91 -129 149 -145 99 -27 192 10 255 99
l30 43 3 631 c2 565 1 637 -14 675 -21 56 -57 98 -108 125 -37 20 -57 22 -231
24 -104 1 -203 -2 -220 -6z m403 -178 l22 -25 -2 -603 c-3 -675 1 -639 -73
-639 -73 0 -69 -28 -75 575 l-5 541 -24 19 c-19 16 -40 19 -126 19 -100 0
-104 1 -124 26 -24 31 -26 43 -9 79 17 38 55 44 233 38 155 -5 161 -6 183 -30z"/>
<path d="M1412 1600 c-125 -23 -224 -73 -316 -159 -77 -73 -130 -156 -163
-255 -27 -80 -27 -84 -27 -371 -1 -327 2 -352 67 -484 103 -213 339 -346 579
-328 211 17 401 147 492 340 57 121 61 152 61 467 0 270 -1 289 -23 360 -64
204 -237 372 -433 419 -69 16 -177 21 -237 11z m282 -189 c117 -56 199 -151
237 -272 17 -53 19 -94 19 -334 0 -298 -6 -340 -63 -438 -33 -55 -122 -138
-179 -166 -55 -26 -152 -51 -200 -51 -166 0 -329 104 -405 258 l-38 76 -3 290
c-4 331 2 373 68 474 121 187 364 258 564 163z"/>
<path d="M1425 1297 c-93 -31 -158 -89 -199 -176 -20 -43 -21 -61 -21 -316 l0
-270 26 -56 c112 -238 436 -238 548 0 l26 56 0 265 c0 304 -5 329 -82 411 -74
79 -204 117 -298 86z m142 -157 c80 -36 83 -49 83 -336 0 -244 -1 -252 -23
-285 -59 -89 -185 -89 -244 0 -22 33 -23 41 -23 285 0 234 1 253 20 284 21 34
87 72 125 72 11 0 39 -9 62 -20z"/>
<path d="M2348 1598 c-47 -12 -113 -69 -138 -119 -26 -50 -26 -140 -1 -194 38
-82 111 -125 211 -125 l60 0 0 -452 c0 -249 5 -480 10 -513 13 -79 50 -131
119 -167 71 -37 129 -37 202 0 71 36 106 87 120 173 6 41 9 286 7 650 -3 581
-3 584 -25 625 -30 56 -94 109 -148 123 -53 13 -365 13 -417 -1z m415 -170
c16 -19 17 -63 17 -628 l0 -609 -26 -20 c-34 -26 -54 -26 -88 0 l-26 20 0 524
c0 363 -3 532 -11 548 -17 37 -50 47 -154 47 -82 0 -98 3 -115 20 -25 25 -26
81 -2 102 27 25 46 26 222 21 149 -5 167 -7 183 -25z"/>
<path d="M3604 1601 c-245 -39 -449 -230 -499 -467 -11 -50 -15 -141 -15 -335
0 -298 10 -363 72 -482 42 -81 164 -203 245 -245 80 -42 198 -72 283 -72 85 0
203 30 283 72 81 42 203 164 245 245 62 119 72 184 72 482 0 304 -8 360 -67
480 -108 219 -378 359 -619 322z m269 -188 c132 -63 231 -188 256 -327 17 -95
14 -503 -5 -586 -40 -176 -185 -312 -367 -342 -232 -38 -462 126 -507 361 -16
87 -13 514 5 590 20 82 56 149 114 207 98 100 190 136 336 131 88 -2 108 -6
168 -34z"/>
<path d="M3610 1297 c-59 -17 -130 -66 -163 -114 -55 -79 -58 -106 -55 -400 3
-256 4 -270 26 -310 33 -63 74 -106 134 -139 47 -26 62 -29 138 -29 69 0 93 5
128 23 68 36 117 87 146 152 l27 60 -3 278 -3 277 -30 54 c-32 58 -91 112
-148 136 -52 22 -144 27 -197 12z m159 -166 c14 -9 34 -30 45 -45 20 -26 21
-43 24 -272 3 -235 2 -246 -19 -283 -25 -45 -83 -81 -128 -81 -51 0 -108 35
-131 80 -18 36 -20 58 -20 270 0 248 4 274 52 318 48 44 127 50 177 13z"/>
<path d="M4545 1601 c-201 -52 -237 -318 -56 -413 42 -22 67 -28 117 -28 l64
0 0 -482 c0 -322 4 -496 11 -523 16 -56 91 -129 149 -145 99 -27 192 10 255
99 l30 43 3 631 c2 565 1 637 -14 675 -21 56 -57 98 -108 125 -37 20 -57 22
-231 24 -104 1 -203 -2 -220 -6z m403 -178 l22 -25 -2 -603 c-3 -675 1 -639
-73 -639 -73 0 -69 -28 -75 575 l-5 541 -24 19 c-19 16 -40 19 -126 19 -100 0
-104 1 -124 26 -24 31 -26 43 -9 79 17 38 55 44 233 38 155 -5 161 -6 183 -30z"/>
</g>
</svg>
